<svg width="192" height="192" viewBox="0 0 192 192" fill="none" xmlns="http://www.w3.org/2000/svg">
  <rect width="192" height="192" rx="32" fill="#0064FF"/>
  <path d="M48 64C48 50.7452 58.7452 40 72 40H120C133.255 40 144 50.7452 144 64V128C144 141.255 133.255 152 120 152H72C58.7452 152 48 141.255 48 128V64Z" fill="white"/>
  <path d="M64 88C64 83.5817 67.5817 80 72 80H120C124.418 80 128 83.5817 128 88C128 92.4183 124.418 96 120 96H72C67.5817 96 64 92.4183 64 88Z" fill="#0064FF"/>
  <path d="M64 104C64 99.5817 67.5817 96 72 96H120C124.418 96 128 99.5817 128 104C128 108.419 124.418 112 120 112H72C67.5817 112 64 108.419 64 104Z" fill="#0064FF"/>
  <circle cx="96" cy="128" r="8" fill="#0064FF"/>
</svg>
