<svg width="32" height="32" viewBox="0 0 32 32" fill="none" xmlns="http://www.w3.org/2000/svg">
  <rect width="32" height="32" rx="6" fill="#0064FF"/>
  <path d="M8 12C8 10.3431 9.34315 9 11 9H21C22.6569 9 24 10.3431 24 12V20C24 21.6569 22.6569 23 21 23H11C9.34315 23 8 21.6569 8 20V12Z" fill="white"/>
  <path d="M12 16C12 15.4477 12.4477 15 13 15H19C19.5523 15 20 15.4477 20 16C20 16.5523 19.5523 17 19 17H13C12.4477 17 12 16.5523 12 16Z" fill="#0064FF"/>
  <circle cx="16" cy="20" r="1.5" fill="#0064FF"/>
</svg>
